<?xml version="1.0" encoding="utf-8"?>
<!-- Generator: Undiagnosed OCD  -->
<!DOCTYPE svg PUBLIC "-//W3C//DTD SVG 1.1//EN" "http://www.w3.org/Graphics/SVG/1.1/DTD/svg11.dtd">
<svg version="1.1" id="hashcat" xmlns="http://www.w3.org/2000/svg" xmlns:xlink="http://www.w3.org/1999/xlink" x="0px" y="0px"
	 viewBox="0 0 82.9 107" xml:space="preserve">

  <rect fill="black" width="82.9" height="107"/>

  <!-- Trapazoid "A" -->
	<path fill="white" d="
    M    8, 105.1
    l    13.6, -103.6
    h    39.7
    l    13.6, 103.6
    L    8, 105.1
    z"
  />

  <!-- Hashcat Silhouette -->
	<path fill="black" d="
    M    18.3, 26.7

    c    4.8, 3.8      8.6, 7        9.1, 12.9
    c    0.4, 5.1      3.7, 8.5      8.2, 11
    c    1.6, 0.6      2, 2          2, 3.1
    c    0.3, 10.9    -1.9, 21.3    -6.5, 31.3
    c   -0.8, 1.8     -2, 3.4       -3.2, 4.9
    c   -3.1, 3.7     -4.2, 7.3     -4.2, 15.2

    h    35.5

    c    0, -7.9      -1.1, -11.5   -4.2, -15.2
    c   -1.2, -1.5    -2.4, -3.1    -3.2, -4.9
    c   -4.6, -10     -6.8, -20.4   -6.5, -31.3
    c    0, -1.1       0.4, -2.5     2, -3.1
    c    4.5, -2.5     7.8, -5.9       8.2, -11
    c    0.5, -5.9     4.3, -9.1     9.1, -12.9

    l    0.85, -1.2
    l    -0.9, 0.2

    c   -5.5, 2       -11, 2        -16.5, -0.7
		c   -4.4, -2.2    -8.8, -2.2    -13.2, 0
    c   -5.5, 2.7     -11, 2.7      -16.5, 0.7

    l    -0.9, -0.2
    L    18.3, 26.7

    z"
  />

  <!-- Left Eye -->
	<path fill="#FFFFFF" d="
    M    39.2, 45.8
    c   -4.4, 1.2     -6.1, -1.2    -7.7, -4.1
    C    33.8, 43      36.2, 44.3    39.2, 45.8
    z"
  />

  <!-- Right Eye -->
  <path fill="#FFFFFF" d="
    M    43.7, 45.8
    c    4.4, 1.2      6.1, -1.2     7.7, -4.1
    C    49.1, 43      46.7, 44.3    43.7, 45.8
    z"
  />

</svg>
