<?xml version="1.0" encoding="UTF-8" standalone="no"?>
<!DOCTYPE svg PUBLIC "-//W3C//DTD SVG 1.1//EN" "http://www.w3.org/Graphics/SVG/1.1/DTD/svg11.dtd">
<svg xmlns="http://www.w3.org/2000/svg" version="1.1" viewBox="0.00 0.00 64.00 64.00">
<g stroke-width="2.00" fill="none" stroke-linecap="butt">
<path stroke="#0a66d8" vector-effect="non-scaling-stroke" d="
  M 60.89 9.28
  Q 48.92 10.04 37.74 14.68
  Q 33.61 16.40 30.73 18.89
  Q 27.44 21.73 24.40 24.54
  Q 23.41 25.45 22.73 26.61
  C 21.99 27.88 21.36 29.44 19.68 29.79"
/>
<path stroke="#3d88e2" vector-effect="non-scaling-stroke" d="
  M 19.68 29.79
  Q 19.70 28.86 20.29 28.43
  Q 21.06 27.87 21.12 26.93
  A 1.59 1.55 -24.6 0 1 21.46 26.05
  Q 22.03 25.34 22.54 24.70
  Q 23.05 24.06 23.45 23.17
  Q 24.85 19.99 27.30 17.61
  Q 28.71 16.23 31.03 13.74
  Q 32.92 11.71 35.45 10.47
  Q 36.35 10.03 37.10 9.33
  Q 38.05 8.43 38.75 8.12
  Q 41.91 6.73 44.94 5.41
  Q 45.65 5.10 48.70 4.38
  Q 50.68 3.91 52.29 2.57"
/>
<path stroke="#3b7cd7" vector-effect="non-scaling-stroke" d="
  M 19.68 29.79
  L 18.24 32.66"
/>
<path stroke="#468de0" vector-effect="non-scaling-stroke" d="
  M 18.24 32.66
  Q 17.91 31.79 18.32 31.40
  Q 18.47 31.25 18.57 31.08
  Q 18.89 30.53 18.99 29.72
  Q 19.11 28.77 18.51 29.52
  Q 15.70 33.02 14.39 36.78
  Q 14.05 37.74 13.47 38.64
  C 12.65 39.92 11.80 41.37 11.43 42.85
  Q 9.82 49.32 7.00 54.68
  Q 5.75 57.07 5.11 54.45
  Q 4.76 53.00 5.55 51.59
  C 6.48 49.94 6.65 47.86 7.28 46.05
  Q 11.66 33.67 18.03 24.56
  Q 22.19 18.59 30.51 12.05
  Q 30.91 11.73 30.98 11.23
  L 31.16 9.90"
/>
<path stroke="#074cbb" vector-effect="non-scaling-stroke" d="
  M 55.38 31.96
  Q 54.99 32.62 54.59 33.33
  Q 54.00 34.40 54.32 33.22
  Q 54.42 32.83 54.39 32.43
  Q 54.35 31.80 53.72 31.88
  Q 53.05 31.96 52.45 32.33
  Q 51.90 32.66 51.22 32.86
  Q 40.80 35.91 33.90 45.13
  Q 32.15 47.47 31.67 49.54
  A 1.59 1.56 75.5 0 1 31.20 50.35
  Q 29.86 51.57 30.15 52.94"
/>
<path stroke="#3b7cd7" vector-effect="non-scaling-stroke" d="
  M 30.15 52.94
  Q 21.02 52.35 17.25 52.75
  Q 14.82 53.02 10.26 55.28"
/>
<path stroke="#136cd7" vector-effect="non-scaling-stroke" d="
  M 10.26 55.28
  L 8.77 55.09
  Q 8.10 55.00 8.34 54.36
  C 9.24 52.02 10.85 50.10 11.51 47.69
  Q 12.33 44.69 13.82 42.05
  Q 14.14 41.49 14.08 40.84
  Q 14.02 40.14 14.56 39.66
  Q 14.89 39.37 15.09 38.97
  L 18.24 32.66"
/>
<path stroke="#468de0" vector-effect="non-scaling-stroke" d="
  M 10.26 55.28
  L 1.22 60.27"
/>
<path stroke="#1848a8" vector-effect="non-scaling-stroke" d="
  M 57.39 49.64
  L 52.41 51.57
  Q 52.12 51.68 51.82 51.62
  L 51.52 51.55
  A 0.57 0.57 0.0 0 1 51.11 50.78
  Q 51.25 50.42 50.93 50.25
  Q 50.56 50.05 50.18 50.23
  L 46.19 52.14"
/>
<path stroke="#3a6ec4" vector-effect="non-scaling-stroke" d="
  M 46.19 52.14
  Q 38.49 54.40 30.15 52.94"
/>
<path stroke="#86abdb" vector-effect="non-scaling-stroke" d="
  M 34.82 56.02
  Q 34.39 55.64 34.19 56.10
  A 0.52 0.52 0.0 0 0 34.58 56.83
  L 40.45 57.73"
/>
<path stroke="#4b78c4" vector-effect="non-scaling-stroke" d="
  M 40.45 57.73
  Q 39.38 57.49 38.68 57.73
  Q 38.14 57.92 38.62 58.22
  Q 40.95 59.67 42.01 59.87
  Q 43.87 60.22 50.48 60.42"
/>
<path stroke="#86abdb" vector-effect="non-scaling-stroke" d="
  M 50.48 60.42
  Q 42.90 61.38 35.27 61.43
  Q 35.02 61.44 34.82 61.32
  Q 34.62 61.20 34.62 60.93
  A 0.42 0.42 0.0 0 0 34.24 60.50
  Q 31.87 60.25 29.45 59.54
  C 27.28 58.91 24.84 59.10 22.54 59.11
  Q 22.20 59.11 22.00 59.39
  Q 21.74 59.74 21.94 60.16
  A 0.73 0.72 -18.1 0 0 22.74 60.56
  Q 28.31 59.41 32.23 62.23"
/>
<path stroke="#6485bf" vector-effect="non-scaling-stroke" d="
  M 58.50 54.02
  L 56.32 53.57
  A 0.87 0.86 23.7 0 0 55.43 53.91
  Q 54.23 55.60 52.27 54.96
  Q 51.65 54.76 51.17 55.20
  L 50.66 55.66
  Q 50.18 56.10 49.53 56.10
  L 34.82 56.02"
/>
<path stroke="#4b78c4" vector-effect="non-scaling-stroke" d="
  M 34.82 56.02
  Q 34.70 55.64 34.38 55.67
  Q 33.83 55.72 33.94 56.26
  Q 34.04 56.75 33.93 57.22
  Q 33.88 57.43 33.68 57.39
  Q 33.48 57.36 33.28 57.43
  A 0.32 0.32 0.0 0 1 32.85 57.12
  C 32.88 56.19 32.15 55.33 31.22 55.17
  Q 29.24 54.84 27.22 54.89
  Q 26.94 54.90 26.93 54.62
  L 26.93 54.33
  Q 26.92 54.17 27.08 54.16
  Q 31.31 53.94 35.53 54.61
  Q 41.35 55.53 46.44 52.63
  A 0.22 0.22 0.0 0 0 46.42 52.24
  Q 46.34 52.21 46.19 52.14"
/>
<path stroke="#6485bf" vector-effect="non-scaling-stroke" d="
  M 59.03 55.73
  Q 58.59 55.48 58.20 55.36
  Q 57.81 55.24 57.33 55.42
  Q 49.23 58.55 40.45 57.73"
/>
<path stroke="#86abdb" vector-effect="non-scaling-stroke" d="
  M 60.48 60.18
  L 58.50 62.09"
/>
<path stroke="#6485bf" vector-effect="non-scaling-stroke" d="
  M 59.63 57.72
  L 50.48 60.42"
/>
</g>
<path fill="#0c72e3" d="
  M 60.89 9.28
  Q 48.92 10.04 37.74 14.68
  Q 33.61 16.40 30.73 18.89
  Q 27.44 21.73 24.40 24.54
  Q 23.41 25.45 22.73 26.61
  C 21.99 27.88 21.36 29.44 19.68 29.79
  Q 19.70 28.86 20.29 28.43
  Q 21.06 27.87 21.12 26.93
  A 1.59 1.55 -24.6 0 1 21.46 26.05
  Q 22.03 25.34 22.54 24.70
  Q 23.05 24.06 23.45 23.17
  Q 24.85 19.99 27.30 17.61
  Q 28.71 16.23 31.03 13.74
  Q 32.92 11.71 35.45 10.47
  Q 36.35 10.03 37.10 9.33
  Q 38.05 8.43 38.75 8.12
  Q 41.91 6.73 44.94 5.41
  Q 45.65 5.10 48.70 4.38
  Q 50.68 3.91 52.29 2.57
  C 55.72 2.03 63.01 0.62 62.95 4.77
  C 62.93 6.24 61.68 7.85 60.89 9.28
  Z"
/>
<path fill="#6d9de0" d="
  M 52.29 2.57
  Q 50.68 3.91 48.70 4.38
  Q 45.65 5.10 44.94 5.41
  Q 41.91 6.73 38.75 8.12
  Q 38.05 8.43 37.10 9.33
  Q 36.35 10.03 35.45 10.47
  Q 32.92 11.71 31.03 13.74
  Q 28.71 16.23 27.30 17.61
  Q 24.85 19.99 23.45 23.17
  Q 23.05 24.06 22.54 24.70
  Q 22.03 25.34 21.46 26.05
  A 1.59 1.55 -24.6 0 0 21.12 26.93
  Q 21.06 27.87 20.29 28.43
  Q 19.70 28.86 19.68 29.79
  L 18.24 32.66
  Q 17.91 31.79 18.32 31.40
  Q 18.47 31.25 18.57 31.08
  Q 18.89 30.53 18.99 29.72
  Q 19.11 28.77 18.51 29.52
  Q 15.70 33.02 14.39 36.78
  Q 14.05 37.74 13.47 38.64
  C 12.65 39.92 11.80 41.37 11.43 42.85
  Q 9.82 49.32 7.00 54.68
  Q 5.75 57.07 5.11 54.45
  Q 4.76 53.00 5.55 51.59
  C 6.48 49.94 6.65 47.86 7.28 46.05
  Q 11.66 33.67 18.03 24.56
  Q 22.19 18.59 30.51 12.05
  Q 30.91 11.73 30.98 11.23
  L 31.16 9.90
  Q 40.89 4.03 52.29 2.57
  Z"
/>
<path fill="#085acd" d="
  M 60.89 9.28
  Q 55.52 19.57 55.38 31.96
  Q 54.99 32.62 54.59 33.33
  Q 54.00 34.40 54.32 33.22
  Q 54.42 32.83 54.39 32.43
  Q 54.35 31.80 53.72 31.88
  Q 53.05 31.96 52.45 32.33
  Q 51.90 32.66 51.22 32.86
  Q 40.80 35.91 33.90 45.13
  Q 32.15 47.47 31.67 49.54
  A 1.59 1.56 75.5 0 1 31.20 50.35
  Q 29.86 51.57 30.15 52.94
  Q 21.02 52.35 17.25 52.75
  Q 14.82 53.02 10.26 55.28
  L 8.77 55.09
  Q 8.10 55.00 8.34 54.36
  C 9.24 52.02 10.85 50.10 11.51 47.69
  Q 12.33 44.69 13.82 42.05
  Q 14.14 41.49 14.08 40.84
  Q 14.02 40.14 14.56 39.66
  Q 14.89 39.37 15.09 38.97
  L 18.24 32.66
  L 19.68 29.79
  C 21.36 29.44 21.99 27.88 22.73 26.61
  Q 23.41 25.45 24.40 24.54
  Q 27.44 21.73 30.73 18.89
  Q 33.61 16.40 37.74 14.68
  Q 48.92 10.04 60.89 9.28
  Z"
/>
<path fill="#1e7de0" d="
  M 31.16 9.90
  L 30.98 11.23
  Q 30.91 11.73 30.51 12.05
  Q 22.19 18.59 18.03 24.56
  Q 11.66 33.67 7.28 46.05
  C 6.65 47.86 6.48 49.94 5.55 51.59
  Q 4.76 53.00 5.11 54.45
  Q 5.75 57.07 7.00 54.68
  Q 9.82 49.32 11.43 42.85
  C 11.80 41.37 12.65 39.92 13.47 38.64
  Q 14.05 37.74 14.39 36.78
  Q 15.70 33.02 18.51 29.52
  Q 19.11 28.77 18.99 29.72
  Q 18.89 30.53 18.57 31.08
  Q 18.47 31.25 18.32 31.40
  Q 17.91 31.79 18.24 32.66
  L 15.09 38.97
  Q 14.89 39.37 14.56 39.66
  Q 14.02 40.14 14.08 40.84
  Q 14.14 41.49 13.82 42.05
  Q 12.33 44.69 11.51 47.69
  C 10.85 50.10 9.24 52.02 8.34 54.36
  Q 8.10 55.00 8.77 55.09
  L 10.26 55.28
  L 1.22 60.27
  C 4.22 40.49 13.89 20.76 31.16 9.90
  Z"
/>
<path fill="#063ea8" d="
  M 55.38 31.96
  Q 55.30 40.99 57.39 49.64
  L 52.41 51.57
  Q 52.12 51.68 51.82 51.62
  L 51.52 51.55
  A 0.57 0.57 0.0 0 1 51.11 50.78
  Q 51.25 50.42 50.93 50.25
  Q 50.56 50.05 50.18 50.23
  L 46.19 52.14
  Q 38.49 54.40 30.15 52.94
  Q 29.86 51.57 31.20 50.35
  A 1.59 1.56 75.5 0 0 31.67 49.54
  Q 32.15 47.47 33.90 45.13
  Q 40.80 35.91 51.22 32.86
  Q 51.90 32.66 52.45 32.33
  Q 53.05 31.96 53.72 31.88
  Q 54.35 31.80 54.39 32.43
  Q 54.42 32.83 54.32 33.22
  Q 54.00 34.40 54.59 33.33
  Q 54.99 32.62 55.38 31.96
  Z"
/>
<path fill="#2952a7" d="
  M 57.39 49.64
  L 58.50 54.02
  L 56.32 53.57
  A 0.87 0.86 23.7 0 0 55.43 53.91
  Q 54.23 55.60 52.27 54.96
  Q 51.65 54.76 51.17 55.20
  L 50.66 55.66
  Q 50.18 56.10 49.53 56.10
  L 34.82 56.02
  Q 34.70 55.64 34.38 55.67
  Q 33.83 55.72 33.94 56.26
  Q 34.04 56.75 33.93 57.22
  Q 33.88 57.43 33.68 57.39
  Q 33.48 57.36 33.28 57.43
  A 0.32 0.32 0.0 0 1 32.85 57.12
  C 32.88 56.19 32.15 55.33 31.22 55.17
  Q 29.24 54.84 27.22 54.89
  Q 26.94 54.90 26.93 54.62
  L 26.93 54.33
  Q 26.92 54.17 27.08 54.16
  Q 31.31 53.94 35.53 54.61
  Q 41.35 55.53 46.44 52.63
  A 0.22 0.22 0.0 0 0 46.42 52.24
  Q 46.34 52.21 46.19 52.14
  L 50.18 50.23
  Q 50.56 50.05 50.93 50.25
  Q 51.25 50.42 51.11 50.78
  A 0.57 0.57 0.0 0 0 51.52 51.55
  L 51.82 51.62
  Q 52.12 51.68 52.41 51.57
  L 57.39 49.64
  Z"
/>
<path fill="#6d9de0" d="
  M 46.19 52.14
  Q 46.34 52.21 46.42 52.24
  A 0.22 0.22 0.0 0 1 46.44 52.63
  Q 41.35 55.53 35.53 54.61
  Q 31.31 53.94 27.08 54.16
  Q 26.92 54.17 26.93 54.33
  L 26.93 54.62
  Q 26.94 54.90 27.22 54.89
  Q 29.24 54.84 31.22 55.17
  C 32.15 55.33 32.88 56.19 32.85 57.12
  A 0.32 0.32 0.0 0 0 33.28 57.43
  Q 33.48 57.36 33.68 57.39
  Q 33.88 57.43 33.93 57.22
  Q 34.04 56.75 33.94 56.26
  Q 33.83 55.72 34.38 55.67
  Q 34.70 55.64 34.82 56.02
  Q 34.39 55.64 34.19 56.10
  A 0.52 0.52 0.0 0 0 34.58 56.83
  L 40.45 57.73
  Q 39.38 57.49 38.68 57.73
  Q 38.14 57.92 38.62 58.22
  Q 40.95 59.67 42.01 59.87
  Q 43.87 60.22 50.48 60.42
  Q 42.90 61.38 35.27 61.43
  Q 35.02 61.44 34.82 61.32
  Q 34.62 61.20 34.62 60.93
  A 0.42 0.42 0.0 0 0 34.24 60.50
  Q 31.87 60.25 29.45 59.54
  C 27.28 58.91 24.84 59.10 22.54 59.11
  Q 22.20 59.11 22.00 59.39
  Q 21.74 59.74 21.94 60.16
  A 0.73 0.72 -18.1 0 0 22.74 60.56
  Q 28.31 59.41 32.23 62.23
  L 1.66 61.97
  Q 1.13 61.96 0.98 61.45
  Q 0.82 60.89 1.22 60.27
  L 10.26 55.28
  Q 14.82 53.02 17.25 52.75
  Q 21.02 52.35 30.15 52.94
  Q 38.49 54.40 46.19 52.14
  Z"
/>
<path fill="#9eb8d6" d="
  M 58.50 54.02
  L 59.03 55.73
  Q 58.59 55.48 58.20 55.36
  Q 57.81 55.24 57.33 55.42
  Q 49.23 58.55 40.45 57.73
  L 34.58 56.83
  A 0.52 0.52 0.0 0 1 34.19 56.10
  Q 34.39 55.64 34.82 56.02
  L 49.53 56.10
  Q 50.18 56.10 50.66 55.66
  L 51.17 55.20
  Q 51.65 54.76 52.27 54.96
  Q 54.23 55.60 55.43 53.91
  A 0.87 0.86 23.7 0 1 56.32 53.57
  L 58.50 54.02
  Z"
/>
<path fill="#2952a7" d="
  M 59.03 55.73
  L 59.63 57.72
  L 50.48 60.42
  Q 43.87 60.22 42.01 59.87
  Q 40.95 59.67 38.62 58.22
  Q 38.14 57.92 38.68 57.73
  Q 39.38 57.49 40.45 57.73
  Q 49.23 58.55 57.33 55.42
  Q 57.81 55.24 58.20 55.36
  Q 58.59 55.48 59.03 55.73
  Z"
/>
<path fill="#9eb8d6" d="
  M 59.63 57.72
  L 60.48 60.18
  L 58.50 62.09
  L 32.23 62.23
  Q 28.31 59.41 22.74 60.56
  A 0.73 0.72 -18.1 0 1 21.94 60.16
  Q 21.74 59.74 22.00 59.39
  Q 22.20 59.11 22.54 59.11
  C 24.84 59.10 27.28 58.91 29.45 59.54
  Q 31.87 60.25 34.24 60.50
  A 0.42 0.42 0.0 0 1 34.62 60.93
  Q 34.62 61.20 34.82 61.32
  Q 35.02 61.44 35.27 61.43
  Q 42.90 61.38 50.48 60.42
  L 59.63 57.72
  Z"
/>
<path fill="#6d9de0" d="
  M 60.48 60.18
  Q 60.96 60.76 60.98 61.38
  Q 61.00 61.92 60.48 62.02
  Q 59.50 62.21 58.50 62.09
  L 60.48 60.18
  Z"
/>
</svg>
